<?xml version="1.0" encoding="UTF-8"?>
<svg xmlns="http://www.w3.org/2000/svg" xmlns:xlink="http://www.w3.org/1999/xlink" width="854" height="480" viewBox="0 0 854 480">
<defs>
<g>
<g id="glyph-0-0">
<path d="M 3.605469 -2.664062 L 2.140625 -2.664062 L 2.140625 0 L 0.75 0 L 0.75 -6.796875 L 4.085938 -6.796875 C 4.5625 -6.789062 4.929688 -6.730469 5.1875 -6.621094 C 5.441406 -6.515625 5.660156 -6.355469 5.839844 -6.148438 C 5.984375 -5.976562 6.101562 -5.785156 6.1875 -5.574219 C 6.273438 -5.367188 6.316406 -5.128906 6.316406 -4.859375 C 6.316406 -4.539062 6.234375 -4.21875 6.074219 -3.910156 C 5.910156 -3.597656 5.640625 -3.375 5.265625 -3.246094 C 5.578125 -3.121094 5.800781 -2.941406 5.933594 -2.710938 C 6.0625 -2.476562 6.128906 -2.121094 6.128906 -1.644531 L 6.128906 -1.191406 C 6.128906 -0.878906 6.140625 -0.667969 6.164062 -0.558594 C 6.203125 -0.382812 6.289062 -0.253906 6.421875 -0.171875 L 6.421875 0 L 4.859375 0 C 4.816406 -0.152344 4.785156 -0.273438 4.769531 -0.363281 C 4.730469 -0.554688 4.710938 -0.75 4.707031 -0.949219 L 4.699219 -1.582031 C 4.691406 -2.015625 4.613281 -2.304688 4.460938 -2.449219 C 4.308594 -2.59375 4.023438 -2.664062 3.605469 -2.664062 Z M 4.46875 -3.902344 C 4.75 -4.03125 4.894531 -4.285156 4.894531 -4.667969 C 4.894531 -5.078125 4.757812 -5.355469 4.480469 -5.496094 C 4.328125 -5.578125 4.097656 -5.617188 3.789062 -5.617188 L 2.140625 -5.617188 L 2.140625 -3.789062 L 3.75 -3.789062 C 4.070312 -3.789062 4.308594 -3.828125 4.46875 -3.902344 Z "/>
</g>
<g id="glyph-0-1">
<path d="M 4.914062 -1.476562 C 4.882812 -1.179688 4.726562 -0.875 4.449219 -0.566406 C 4.019531 -0.078125 3.417969 0.164062 2.640625 0.164062 C 2.003906 0.164062 1.4375 -0.0390625 0.949219 -0.453125 C 0.460938 -0.863281 0.214844 -1.535156 0.214844 -2.460938 C 0.214844 -3.332031 0.4375 -4 0.878906 -4.464844 C 1.320312 -4.929688 1.890625 -5.160156 2.597656 -5.160156 C 3.015625 -5.160156 3.390625 -5.082031 3.726562 -4.925781 C 4.0625 -4.769531 4.335938 -4.519531 4.554688 -4.183594 C 4.753906 -3.882812 4.878906 -3.539062 4.9375 -3.144531 C 4.972656 -2.914062 4.988281 -2.582031 4.980469 -2.148438 L 1.539062 -2.148438 C 1.558594 -1.644531 1.71875 -1.292969 2.015625 -1.089844 C 2.195312 -0.960938 2.414062 -0.898438 2.671875 -0.898438 C 2.941406 -0.898438 3.160156 -0.976562 3.328125 -1.128906 C 3.421875 -1.210938 3.503906 -1.328125 3.574219 -1.476562 Z M 3.617188 -3.015625 C 3.59375 -3.363281 3.488281 -3.625 3.300781 -3.808594 C 3.109375 -3.988281 2.875 -4.078125 2.597656 -4.078125 C 2.292969 -4.078125 2.054688 -3.980469 1.886719 -3.789062 C 1.71875 -3.597656 1.617188 -3.339844 1.574219 -3.015625 Z "/>
</g>
<g id="glyph-0-2">
<path d="M 0.800781 -4.480469 C 1.148438 -4.925781 1.746094 -5.144531 2.589844 -5.144531 C 3.140625 -5.144531 3.628906 -5.039062 4.058594 -4.820312 C 4.484375 -4.601562 4.699219 -4.1875 4.699219 -3.582031 L 4.699219 -1.277344 C 4.699219 -1.117188 4.703125 -0.925781 4.707031 -0.695312 C 4.71875 -0.523438 4.742188 -0.40625 4.785156 -0.347656 C 4.828125 -0.285156 4.894531 -0.234375 4.980469 -0.195312 L 4.980469 0 L 3.550781 0 C 3.511719 -0.101562 3.484375 -0.195312 3.46875 -0.285156 C 3.453125 -0.375 3.441406 -0.476562 3.429688 -0.589844 C 3.25 -0.394531 3.039062 -0.226562 2.804688 -0.0859375 C 2.519531 0.0742188 2.203125 0.15625 1.84375 0.15625 C 1.390625 0.15625 1.015625 0.0273438 0.71875 -0.234375 C 0.421875 -0.492188 0.273438 -0.859375 0.273438 -1.335938 C 0.273438 -1.953125 0.511719 -2.402344 0.988281 -2.679688 C 1.25 -2.828125 1.632812 -2.9375 2.140625 -3.003906 L 2.585938 -3.058594 C 2.828125 -3.089844 3.003906 -3.125 3.109375 -3.171875 C 3.296875 -3.253906 3.390625 -3.378906 3.390625 -3.546875 C 3.390625 -3.753906 3.316406 -3.894531 3.175781 -3.972656 C 3.03125 -4.050781 2.820312 -4.089844 2.546875 -4.089844 C 2.234375 -4.089844 2.015625 -4.011719 1.886719 -3.859375 C 1.792969 -3.746094 1.730469 -3.59375 1.703125 -3.398438 L 0.433594 -3.398438 C 0.460938 -3.839844 0.585938 -4.199219 0.800781 -4.480469 Z M 1.78125 -0.949219 C 1.902344 -0.847656 2.054688 -0.796875 2.230469 -0.796875 C 2.515625 -0.796875 2.773438 -0.878906 3.011719 -1.046875 C 3.25 -1.210938 3.375 -1.515625 3.386719 -1.957031 L 3.386719 -2.445312 C 3.300781 -2.390625 3.21875 -2.347656 3.132812 -2.316406 C 3.046875 -2.285156 2.933594 -2.253906 2.785156 -2.226562 L 2.488281 -2.171875 C 2.210938 -2.121094 2.015625 -2.0625 1.894531 -1.992188 C 1.691406 -1.871094 1.589844 -1.6875 1.589844 -1.433594 C 1.589844 -1.210938 1.652344 -1.046875 1.78125 -0.949219 Z "/>
</g>
<g id="glyph-0-3">
<path d="M 0.640625 -6.796875 L 1.957031 -6.796875 L 1.957031 0 L 0.640625 0 Z "/>
</g>
<g id="glyph-0-4">
<path d="M 0.214844 -3.253906 L 2.863281 -3.253906 L 2.863281 -2.011719 L 0.214844 -2.011719 Z "/>
</g>
<g id="glyph-0-5">
<path d="M 7.332031 -6.796875 L 8.777344 -6.796875 L 6.863281 0 L 5.507812 0 L 4.683594 -3.976562 L 4.445312 -5.289062 L 4.207031 -3.976562 L 3.386719 0 L 2.066406 0 L 0.136719 -6.796875 L 1.644531 -6.796875 L 2.546875 -2.90625 L 2.738281 -1.820312 L 2.9375 -2.882812 L 3.703125 -6.796875 L 5.203125 -6.796875 L 6.007812 -2.90625 L 6.214844 -1.820312 L 6.421875 -2.863281 Z "/>
</g>
<g id="glyph-0-6">
<path d="M 4.804688 -4.390625 C 5.230469 -3.859375 5.441406 -3.230469 5.441406 -2.503906 C 5.441406 -1.765625 5.230469 -1.136719 4.804688 -0.609375 C 4.378906 -0.0859375 3.738281 0.175781 2.871094 0.175781 C 2.007812 0.175781 1.363281 -0.0859375 0.941406 -0.609375 C 0.515625 -1.132812 0.304688 -1.765625 0.304688 -2.503906 C 0.304688 -3.230469 0.515625 -3.859375 0.941406 -4.390625 C 1.363281 -4.921875 2.007812 -5.1875 2.871094 -5.1875 C 3.734375 -5.1875 4.382812 -4.921875 4.804688 -4.390625 Z M 2.867188 -4.078125 C 2.484375 -4.078125 2.1875 -3.941406 1.980469 -3.667969 C 1.773438 -3.394531 1.667969 -3.007812 1.667969 -2.503906 C 1.667969 -2 1.773438 -1.609375 1.980469 -1.335938 C 2.1875 -1.0625 2.484375 -0.925781 2.867188 -0.925781 C 3.253906 -0.925781 3.546875 -1.0625 3.753906 -1.335938 C 3.960938 -1.609375 4.0625 -2 4.0625 -2.503906 C 4.0625 -3.007812 3.960938 -3.394531 3.753906 -3.667969 C 3.546875 -3.941406 3.253906 -4.078125 2.867188 -4.078125 Z "/>
</g>
<g id="glyph-0-7">
<path d="M 3.140625 -3.8125 C 2.613281 -3.8125 2.257812 -3.640625 2.074219 -3.296875 C 1.972656 -3.101562 1.921875 -2.804688 1.921875 -2.402344 L 1.921875 0 L 0.597656 0 L 0.597656 -5.027344 L 1.855469 -5.027344 L 1.855469 -4.148438 C 2.058594 -4.484375 2.234375 -4.714844 2.382812 -4.835938 C 2.628906 -5.042969 2.949219 -5.144531 3.34375 -5.144531 C 3.367188 -5.144531 3.390625 -5.144531 3.40625 -5.144531 C 3.421875 -5.144531 3.460938 -5.140625 3.519531 -5.136719 L 3.519531 -3.789062 C 3.4375 -3.800781 3.363281 -3.804688 3.296875 -3.808594 C 3.234375 -3.8125 3.179688 -3.8125 3.140625 -3.8125 Z "/>
</g>
<g id="glyph-0-8">
<path d="M 5.1875 -6.789062 L 5.1875 0 L 3.910156 0 L 3.910156 -0.695312 C 3.722656 -0.398438 3.507812 -0.179688 3.269531 -0.046875 C 3.03125 0.0898438 2.730469 0.15625 2.375 0.15625 C 1.789062 0.15625 1.292969 -0.0820312 0.890625 -0.554688 C 0.492188 -1.03125 0.289062 -1.640625 0.289062 -2.382812 C 0.289062 -3.242188 0.488281 -3.917969 0.882812 -4.410156 C 1.277344 -4.902344 1.804688 -5.144531 2.46875 -5.144531 C 2.773438 -5.144531 3.042969 -5.078125 3.277344 -4.945312 C 3.515625 -4.8125 3.707031 -4.625 3.855469 -4.390625 L 3.855469 -6.789062 Z M 1.644531 -2.480469 C 1.644531 -2.015625 1.738281 -1.644531 1.921875 -1.371094 C 2.105469 -1.089844 2.382812 -0.949219 2.753906 -0.949219 C 3.125 -0.949219 3.40625 -1.089844 3.601562 -1.363281 C 3.796875 -1.640625 3.890625 -2 3.890625 -2.441406 C 3.890625 -3.054688 3.738281 -3.492188 3.425781 -3.757812 C 3.234375 -3.917969 3.015625 -4 2.761719 -4 C 2.378906 -4 2.097656 -3.851562 1.917969 -3.5625 C 1.738281 -3.273438 1.644531 -2.910156 1.644531 -2.480469 Z "/>
</g>
<g id="glyph-0-9">
<rect x="0" y="0" width="0" height="0" mask="url(#mask-0)"/>
</g>
<g id="glyph-0-10">
<path d="M 5.449219 -2.96875 L 2.148438 -2.96875 L 2.148438 -1.222656 L 5.910156 -1.222656 L 5.910156 0 L 0.761719 0 L 0.761719 -6.796875 L 5.746094 -6.796875 L 5.746094 -5.59375 L 2.148438 -5.59375 L 2.148438 -4.148438 L 5.449219 -4.148438 Z "/>
</g>
<g id="glyph-0-11">
<path d="M 5.089844 0 L 3.453125 0 L 2.585938 -1.507812 L 1.714844 0 L 0.121094 0 L 1.835938 -2.546875 L 0.195312 -5.015625 L 1.804688 -5.015625 L 2.640625 -3.558594 L 3.464844 -5.015625 L 5.027344 -5.015625 L 3.375 -2.570312 Z "/>
</g>
<g id="glyph-0-12">
<path d="M 3.4375 -3.644531 C 3.324219 -3.886719 3.109375 -4.007812 2.785156 -4.007812 C 2.410156 -4.007812 2.15625 -3.886719 2.027344 -3.644531 C 1.957031 -3.503906 1.921875 -3.296875 1.921875 -3.023438 L 1.921875 0 L 0.589844 0 L 0.589844 -5.015625 L 1.867188 -5.015625 L 1.867188 -4.285156 C 2.03125 -4.546875 2.183594 -4.730469 2.328125 -4.84375 C 2.582031 -5.039062 2.914062 -5.136719 3.320312 -5.136719 C 3.703125 -5.136719 4.015625 -5.050781 4.25 -4.882812 C 4.441406 -4.726562 4.585938 -4.527344 4.683594 -4.28125 C 4.855469 -4.574219 5.070312 -4.792969 5.328125 -4.929688 C 5.597656 -5.066406 5.898438 -5.136719 6.230469 -5.136719 C 6.453125 -5.136719 6.667969 -5.09375 6.886719 -5.007812 C 7.101562 -4.921875 7.296875 -4.769531 7.46875 -4.554688 C 7.613281 -4.378906 7.707031 -4.164062 7.757812 -3.910156 C 7.789062 -3.742188 7.800781 -3.492188 7.800781 -3.167969 L 7.792969 0 L 6.445312 0 L 6.445312 -3.199219 C 6.445312 -3.390625 6.417969 -3.546875 6.355469 -3.671875 C 6.238281 -3.90625 6.023438 -4.019531 5.710938 -4.019531 C 5.347656 -4.019531 5.09375 -3.871094 4.957031 -3.570312 C 4.886719 -3.410156 4.851562 -3.21875 4.851562 -2.992188 L 4.851562 0 L 3.527344 0 L 3.527344 -2.992188 C 3.527344 -3.289062 3.496094 -3.507812 3.4375 -3.644531 Z "/>
</g>
<g id="glyph-0-13">
<path d="M 4.824219 -4.488281 C 5.230469 -4.054688 5.433594 -3.417969 5.433594 -2.578125 C 5.433594 -1.691406 5.234375 -1.019531 4.835938 -0.554688 C 4.4375 -0.0898438 3.925781 0.144531 3.296875 0.144531 C 2.898438 0.144531 2.566406 0.0429688 2.300781 -0.15625 C 2.15625 -0.265625 2.015625 -0.429688 1.875 -0.640625 L 1.875 1.976562 L 0.578125 1.976562 L 0.578125 -5.027344 L 1.835938 -5.027344 L 1.835938 -4.285156 C 1.976562 -4.503906 2.128906 -4.675781 2.289062 -4.800781 C 2.578125 -5.023438 2.925781 -5.136719 3.328125 -5.136719 C 3.917969 -5.136719 4.414062 -4.921875 4.824219 -4.488281 Z M 4.078125 -2.511719 C 4.078125 -2.898438 3.988281 -3.242188 3.8125 -3.542969 C 3.636719 -3.839844 3.347656 -3.988281 2.953125 -3.988281 C 2.476562 -3.988281 2.148438 -3.761719 1.96875 -3.3125 C 1.875 -3.070312 1.832031 -2.765625 1.832031 -2.398438 C 1.832031 -1.8125 1.984375 -1.402344 2.296875 -1.167969 C 2.480469 -1.027344 2.699219 -0.960938 2.953125 -0.960938 C 3.316406 -0.960938 3.597656 -1.101562 3.789062 -1.382812 C 3.980469 -1.667969 4.078125 -2.042969 4.078125 -2.511719 Z "/>
</g>
<g id="glyph-0-14">
<path d="M 2.46875 -1.375 L 2.46875 0 L 1.070312 0 L 1.070312 -1.375 Z M 1.070312 -3.453125 L 1.070312 -4.828125 L 2.46875 -4.828125 L 2.46875 -3.453125 Z "/>
</g>
<g id="glyph-0-15">
<path d="M 4.699219 -1.398438 L 2.195312 -1.398438 L 1.726562 0 L 0.238281 0 L 2.664062 -6.796875 L 4.269531 -6.796875 L 6.675781 0 L 5.136719 0 Z M 4.300781 -2.570312 L 3.453125 -5.242188 L 2.578125 -2.570312 Z "/>
</g>
<g id="glyph-0-16">
<path d="M 2.019531 0 L 0.695312 0 L 0.695312 -6.796875 L 2.761719 -6.796875 L 4 -1.453125 L 5.226562 -6.796875 L 7.269531 -6.796875 L 7.269531 0 L 5.945312 0 L 5.945312 -4.597656 C 5.945312 -4.730469 5.945312 -4.914062 5.949219 -5.152344 C 5.953125 -5.390625 5.953125 -5.574219 5.953125 -5.703125 L 4.667969 0 L 3.289062 0 L 2.011719 -5.703125 C 2.011719 -5.574219 2.011719 -5.390625 2.015625 -5.152344 C 2.019531 -4.914062 2.019531 -4.730469 2.019531 -4.597656 Z "/>
</g>
<g id="glyph-0-17">
<path d="M 0.121094 -5.027344 L 1.59375 -5.027344 L 2.640625 -1.320312 L 3.710938 -5.027344 L 5.125 -5.027344 L 3.3125 0 L 1.921875 0 Z "/>
</g>
<g id="glyph-0-18">
<path d="M 1.964844 -5.027344 L 1.964844 0 L 0.632812 0 L 0.632812 -5.027344 Z M 1.964844 -6.839844 L 1.964844 -5.625 L 0.632812 -5.625 L 0.632812 -6.839844 Z "/>
</g>
<g id="glyph-0-19">
<path d="M 2.980469 -4.054688 C 2.535156 -4.054688 2.226562 -3.863281 2.0625 -3.484375 C 1.976562 -3.285156 1.933594 -3.03125 1.933594 -2.722656 L 1.933594 0 L 0.621094 0 L 0.621094 -5.015625 L 1.890625 -5.015625 L 1.890625 -4.285156 C 2.058594 -4.542969 2.21875 -4.726562 2.371094 -4.84375 C 2.640625 -5.046875 2.984375 -5.144531 3.398438 -5.144531 C 3.917969 -5.144531 4.34375 -5.011719 4.671875 -4.738281 C 5.003906 -4.464844 5.167969 -4.015625 5.167969 -3.386719 L 5.167969 0 L 3.824219 0 L 3.824219 -3.058594 C 3.824219 -3.320312 3.789062 -3.523438 3.71875 -3.667969 C 3.589844 -3.925781 3.339844 -4.054688 2.980469 -4.054688 Z "/>
</g>
<g id="glyph-0-20">
<path d="M 2.035156 0.878906 C 2.175781 1 2.414062 1.0625 2.75 1.0625 C 3.222656 1.0625 3.539062 0.902344 3.699219 0.585938 C 3.804688 0.382812 3.855469 0.0429688 3.855469 -0.4375 L 3.855469 -0.761719 C 3.730469 -0.546875 3.59375 -0.382812 3.449219 -0.277344 C 3.1875 -0.078125 2.847656 0.0234375 2.429688 0.0234375 C 1.785156 0.0234375 1.269531 -0.203125 0.882812 -0.65625 C 0.496094 -1.109375 0.304688 -1.726562 0.304688 -2.5 C 0.304688 -3.246094 0.492188 -3.875 0.863281 -4.382812 C 1.234375 -4.890625 1.761719 -5.144531 2.445312 -5.144531 C 2.695312 -5.144531 2.914062 -5.109375 3.105469 -5.03125 C 3.425781 -4.898438 3.679688 -4.65625 3.878906 -4.300781 L 3.878906 -5.027344 L 5.15625 -5.027344 L 5.15625 -0.257812 C 5.15625 0.390625 5.046875 0.878906 4.828125 1.207031 C 4.453125 1.773438 3.734375 2.058594 2.671875 2.058594 C 2.027344 2.058594 1.503906 1.929688 1.097656 1.679688 C 0.691406 1.425781 0.46875 1.050781 0.425781 0.546875 L 1.855469 0.546875 C 1.890625 0.703125 1.949219 0.8125 2.035156 0.878906 Z M 1.8125 -1.714844 C 1.992188 -1.289062 2.308594 -1.078125 2.773438 -1.078125 C 3.078125 -1.078125 3.339844 -1.195312 3.550781 -1.425781 C 3.761719 -1.660156 3.867188 -2.027344 3.867188 -2.535156 C 3.867188 -3.011719 3.769531 -3.375 3.566406 -3.625 C 3.367188 -3.875 3.097656 -4 2.757812 -4 C 2.296875 -4 1.976562 -3.78125 1.804688 -3.347656 C 1.710938 -3.117188 1.664062 -2.832031 1.664062 -2.496094 C 1.664062 -2.203125 1.714844 -1.941406 1.8125 -1.714844 Z "/>
</g>
<g id="glyph-0-21">
<path d="M 5.660156 -6.796875 L 5.660156 -5.59375 L 3.625 -5.59375 L 3.625 0 L 2.195312 0 L 2.195312 -5.59375 L 0.152344 -5.59375 L 0.152344 -6.796875 Z "/>
</g>
<g id="glyph-0-22">
<path d="M 0.71875 -6.796875 L 2.140625 -6.796875 L 2.140625 -1.222656 L 5.507812 -1.222656 L 5.507812 0 L 0.71875 0 Z "/>
</g>
<g id="glyph-0-23">
<path d="M 4.960938 -3.222656 L 3.617188 -3.222656 C 3.589844 -3.410156 3.527344 -3.578125 3.425781 -3.730469 C 3.277344 -3.933594 3.050781 -4.035156 2.738281 -4.035156 C 2.296875 -4.035156 1.992188 -3.816406 1.832031 -3.375 C 1.746094 -3.140625 1.703125 -2.832031 1.703125 -2.445312 C 1.703125 -2.074219 1.746094 -1.777344 1.832031 -1.554688 C 1.988281 -1.136719 2.28125 -0.925781 2.714844 -0.925781 C 3.023438 -0.925781 3.242188 -1.011719 3.371094 -1.175781 C 3.5 -1.34375 3.578125 -1.558594 3.605469 -1.820312 L 4.949219 -1.820312 C 4.917969 -1.421875 4.773438 -1.042969 4.515625 -0.6875 C 4.101562 -0.113281 3.492188 0.175781 2.683594 0.175781 C 1.875 0.175781 1.28125 -0.0664062 0.898438 -0.542969 C 0.519531 -1.023438 0.328125 -1.644531 0.328125 -2.410156 C 0.328125 -3.273438 0.539062 -3.949219 0.960938 -4.425781 C 1.382812 -4.90625 1.960938 -5.144531 2.703125 -5.144531 C 3.332031 -5.144531 3.847656 -5.003906 4.25 -4.722656 C 4.652344 -4.441406 4.886719 -3.941406 4.960938 -3.222656 Z "/>
</g>
<g id="glyph-0-24">
<path d="M 5.226562 0 L 3.636719 0 L 2.433594 -2.148438 L 1.890625 -1.582031 L 1.890625 0 L 0.597656 0 L 0.597656 -6.773438 L 1.890625 -6.773438 L 1.890625 -3.113281 L 3.527344 -5.003906 L 5.15625 -5.003906 L 3.398438 -3.082031 Z "/>
</g>
</g>
<image id="source-14" x="0" y="0" width="0" height="0"/>
<mask id="mask-0">
<use xlink:href="#source-14"/>
</mask>
</defs>
<g fill="rgb(94.117647%, 93.72549%, 90.980392%)" fill-opacity="1">
<use xlink:href="#glyph-0-0" x="30" y="27.272461"/>
<use xlink:href="#glyph-0-1" x="37" y="27.272461"/>
<use xlink:href="#glyph-0-2" x="42" y="27.272461"/>
<use xlink:href="#glyph-0-3" x="47" y="27.272461"/>
<use xlink:href="#glyph-0-4" x="50" y="27.272461"/>
<use xlink:href="#glyph-0-5" x="53" y="27.272461"/>
<use xlink:href="#glyph-0-6" x="62" y="27.272461"/>
<use xlink:href="#glyph-0-7" x="68" y="27.272461"/>
<use xlink:href="#glyph-0-3" x="72" y="27.272461"/>
<use xlink:href="#glyph-0-8" x="75" y="27.272461"/>
<use xlink:href="#glyph-0-9" x="81" y="27.272461"/>
<use xlink:href="#glyph-0-10" x="84" y="27.272461"/>
<use xlink:href="#glyph-0-11" x="90" y="27.272461"/>
<use xlink:href="#glyph-0-2" x="95" y="27.272461"/>
<use xlink:href="#glyph-0-12" x="100" y="27.272461"/>
<use xlink:href="#glyph-0-13" x="108" y="27.272461"/>
<use xlink:href="#glyph-0-3" x="114" y="27.272461"/>
<use xlink:href="#glyph-0-1" x="117" y="27.272461"/>
<use xlink:href="#glyph-0-14" x="122" y="27.272461"/>
<use xlink:href="#glyph-0-9" x="125" y="27.272461"/>
<use xlink:href="#glyph-0-15" x="127" y="27.272461"/>
<use xlink:href="#glyph-0-9" x="133" y="27.272461"/>
<use xlink:href="#glyph-0-16" x="135" y="27.272461"/>
<use xlink:href="#glyph-0-6" x="143" y="27.272461"/>
<use xlink:href="#glyph-0-17" x="149" y="27.272461"/>
<use xlink:href="#glyph-0-18" x="154" y="27.272461"/>
<use xlink:href="#glyph-0-19" x="157" y="27.272461"/>
<use xlink:href="#glyph-0-20" x="163" y="27.272461"/>
<use xlink:href="#glyph-0-9" x="169" y="27.272461"/>
<use xlink:href="#glyph-0-21" x="172" y="27.272461"/>
<use xlink:href="#glyph-0-7" x="178" y="27.272461"/>
<use xlink:href="#glyph-0-2" x="181" y="27.272461"/>
<use xlink:href="#glyph-0-18" x="186" y="27.272461"/>
<use xlink:href="#glyph-0-19" x="189" y="27.272461"/>
<use xlink:href="#glyph-0-9" x="195" y="27.272461"/>
<use xlink:href="#glyph-0-6" x="198" y="27.272461"/>
<use xlink:href="#glyph-0-19" x="204" y="27.272461"/>
<use xlink:href="#glyph-0-9" x="210" y="27.272461"/>
<use xlink:href="#glyph-0-22" x="213" y="27.272461"/>
<use xlink:href="#glyph-0-1" x="219" y="27.272461"/>
<use xlink:href="#glyph-0-17" x="224" y="27.272461"/>
<use xlink:href="#glyph-0-1" x="229" y="27.272461"/>
<use xlink:href="#glyph-0-3" x="234" y="27.272461"/>
<use xlink:href="#glyph-0-9" x="237" y="27.272461"/>
<use xlink:href="#glyph-0-21" x="240" y="27.272461"/>
<use xlink:href="#glyph-0-7" x="246" y="27.272461"/>
<use xlink:href="#glyph-0-2" x="249" y="27.272461"/>
<use xlink:href="#glyph-0-23" x="254" y="27.272461"/>
<use xlink:href="#glyph-0-24" x="259" y="27.272461"/>
</g>
</svg>
